<?xml version="1.0" encoding="utf-8"?>
<!-- Generator: Adobe Illustrator 23.0.3, SVG Export Plug-In . SVG Version: 6.00 Build 0)  -->
<svg version="1.1" id="Layer_1" xmlns="http://www.w3.org/2000/svg" xmlns:xlink="http://www.w3.org/1999/xlink" x="0px" y="0px"
	 viewBox="0 0 42.5 42.5" style="enable-background:new 0 0 42.5 42.5;" xml:space="preserve">
<style type="text/css">
	.st0{fill:#f9f9f9;}
</style>
<path class="st0" d="M33.8,4.1h-5.5c0-1.4-1.1-2.6-2.5-2.6h-9.2c-1.4,0-2.5,1.2-2.5,2.6H8.7c-2,0-3.7,2-3.7,4.5v27.9
	C5,39,6.6,41,8.7,41h25.2c2,0,3.7-2,3.7-4.5V8.6C37.5,6.1,35.9,4.1,33.8,4.1z M16.2,36h-5.5v-7.4h5.5V36z M24,36h-5.5V19.7H24V36z
	 M31.8,36h-5.5V23.2h5.5V36z M30,15.2H12.5c-1.4,0-2.5-1.2-2.5-2.6c0-1.4,1.1-2.6,2.5-2.6H30c1.4,0,2.5,1.2,2.5,2.6
	C32.5,14.1,31.4,15.2,30,15.2z"/>
</svg>
