<?xml version="1.0" encoding="utf-8"?>
<!-- Generator: Adobe Illustrator 23.0.3, SVG Export Plug-In . SVG Version: 6.00 Build 0)  -->
<svg version="1.1" id="Layer_1" xmlns="http://www.w3.org/2000/svg" xmlns:xlink="http://www.w3.org/1999/xlink" x="0px" y="0px"
	 viewBox="0 0 42.5 42.5" style="enable-background:new 0 0 42.5 42.5;" xml:space="preserve">
<style type="text/css">
	.st0{fill:#f9f9f9;}
</style>
<path class="st0" d="M36.6,18.8h-9.2c-0.7,0-1.3,0.3-1.7,0.8V1.2H3.4v40.1h7V34c0-1.2,1-2.1,2.2-2.1h3.9c1.2,0,2.2,1,2.2,2.1v7.3h7
	v0h13V22.1h0.4v-0.5C39.1,20.1,38,18.8,36.6,18.8z M12.3,28H7.8v-4.5h4.5V28z M12.3,19H7.8v-4.5h4.5V19z M12.3,10H7.8V5.5h4.5V10z
	 M21.3,28h-4.5v-4.5h4.5V28z M21.3,19h-4.5v-4.5h4.5V19z M21.3,10h-4.5V5.5h4.5V10z M34.3,38.2h-4.5v-4.5h4.5V38.2z M34.3,29.2h-4.5
	v-4.5h4.5V29.2z"/>
</svg>
