<?xml version="1.0" encoding="utf-8"?>
<!-- Generator: Adobe Illustrator 23.0.3, SVG Export Plug-In . SVG Version: 6.00 Build 0)  -->
<svg version="1.1" id="Layer_1" xmlns="http://www.w3.org/2000/svg" xmlns:xlink="http://www.w3.org/1999/xlink" x="0px" y="0px"
	 viewBox="0 0 42.5 42.5" style="enable-background:new 0 0 42.5 42.5;" xml:space="preserve">
<style type="text/css">
	.st0{fill:#f9f9f9;}
</style>
<g>
	<g>
		<path class="st0" d="M21.2,0.8C9.9,0.8,0.8,9.9,0.8,21.3c0,11.3,9.2,20.5,20.5,20.5s20.5-9.2,20.5-20.5
			C41.7,9.9,32.6,0.8,21.2,0.8z M21.2,38.3c-9.4,0-17-7.6-17-17c0-9.4,7.6-17,17-17c9.4,0,17,7.6,17,17
			C38.3,30.7,30.7,38.3,21.2,38.3z M21.1,27.3c-0.8,0-1.4,0.2-2,0.7c-0.5,0.5-0.8,1.1-0.8,1.8c0,0.7,0.3,1.3,0.8,1.8
			c0.5,0.5,1.2,0.7,2,0.7c0.8,0,1.4-0.2,2-0.7c0.5-0.5,0.8-1.1,0.8-1.8c0-0.7-0.3-1.3-0.8-1.8C22.5,27.5,21.9,27.3,21.1,27.3z
			 M21.3,10.3c-2.2,0-3.9,0.5-5.1,1.6c-1.2,1.1-1.8,2.6-1.9,4.6h5c0-0.7,0.2-1.3,0.6-1.8c0.4-0.4,0.8-0.7,1.4-0.7
			c1.3,0,1.9,0.7,1.9,2.2c0,0.6-0.2,1.2-0.6,1.7c-0.4,0.5-0.9,1.1-1.7,1.7c-0.7,0.6-1.3,1.3-1.6,2.2c-0.3,0.8-0.5,2-0.5,3.4h4.2
			c0-0.7,0.1-1.4,0.3-1.9c0.2-0.5,0.5-1,1-1.4l1.7-1.6c0.7-0.7,1.2-1.4,1.6-2.1c0.3-0.7,0.5-1.4,0.5-2.2c0-1.9-0.6-3.3-1.8-4.3
			C25.2,10.8,23.5,10.3,21.3,10.3z"/>
	</g>
</g>
</svg>
