<?xml version="1.0" encoding="utf-8"?>
<!-- Generator: Adobe Illustrator 23.0.3, SVG Export Plug-In . SVG Version: 6.00 Build 0)  -->
<svg version="1.1" id="Layer_1" xmlns="http://www.w3.org/2000/svg" xmlns:xlink="http://www.w3.org/1999/xlink" x="0px" y="0px"
	 viewBox="0 0 42.5 42.5" style="enable-background:new 0 0 42.5 42.5;" xml:space="preserve">
<style type="text/css">
	.st0{fill-rule:evenodd;clip-rule:evenodd;fill:#f9f9f9;}
</style>
<g>
	<g>
		<path class="st0" d="M31.3,20.5c-2.6,2.5-6.2,4-10.1,4c-3.9,0-7.4-1.5-10.1-4C8.1,22.1,6,25.2,6,28.9v3.3c0,5.2,8.2,9.4,15.2,9.4
			c7,0,15.2-4.2,15.2-9.4v-3.3C36.5,25.2,34.4,22.1,31.3,20.5z M21.3,19.2c5.1,0,9.2-4.1,9.2-9.1c0-5-4.1-9.1-9.2-9.1
			c-5.1,0-9.2,4.1-9.2,9.1C12.1,15.1,16.2,19.2,21.3,19.2z"/>
	</g>
</g>
</svg>
