<svg version="1.1" id="Layer_1" xmlns="http://www.w3.org/2000/svg" xmlns:xlink="http://www.w3.org/1999/xlink" x="0px" y="0px"
	 viewBox="0 0 42.5 42.5" style="enable-background:new 0 0 42.5 42.5;" xml:space="preserve">
<g>
	<g>
		<path fill="#3a3a3a" class="st0" d="M21.3,8.7C9.8,8.7,0.6,20.5,0.6,20.5s9.2,11.8,20.7,11.8c11.4,0,20.7-11.8,20.7-11.8S32.7,8.7,21.3,8.7z
			 M21.3,30.6c-5.3,0-9.5-4.5-9.5-10.2c0-5.6,4.3-10.2,9.5-10.2c5.3,0,9.5,4.5,9.5,10.2C30.8,26.1,26.5,30.6,21.3,30.6z M21.3,14.2
			c-0.2,0-0.5,0-0.7,0.1c0.4,0.6,0.7,1.3,0.7,2c0,1.7-1.3,3.2-3,3.2c-1,0-2-0.6-2.5-1.4c-0.3,0.8-0.5,1.6-0.5,2.5
			c0,3.5,2.7,6.3,5.9,6.3c3.3,0,5.9-2.8,5.9-6.3C27.2,17,24.5,14.2,21.3,14.2z"/>
	</g>
</g>
</svg>
