
<svg version="1.1" id="Layer_1" xmlns="http://www.w3.org/2000/svg" xmlns:xlink="http://www.w3.org/1999/xlink" x="0px" y="0px"
	 viewBox="0 0 42.5 42.5" style="enable-background:new 0 0 42.5 42.5;" xml:space="preserve">
<g>
	<g>
		<path fill="#3a3a3a" class="st0" d="M21.3,7.7c1.8,0,3.2-1.5,3.2-3.2c0-1.8-1.5-3.2-3.2-3.2c-1.8,0-3.2,1.5-3.2,3.2C18,6.2,19.5,7.7,21.3,7.7z
			 M21.3,34.8c-1.8,0-3.2,1.5-3.2,3.2c0,1.8,1.5,3.2,3.2,3.2c1.8,0,3.2-1.5,3.2-3.2C24.5,36.3,23,34.8,21.3,34.8z M7.7,21.2
			c0-1.8-1.5-3.2-3.2-3.2c-1.8,0-3.2,1.5-3.2,3.2c0,1.8,1.5,3.2,3.2,3.2C6.2,24.5,7.7,23,7.7,21.2z M38.1,18c-1.8,0-3.2,1.5-3.2,3.2
			c0,1.8,1.5,3.2,3.2,3.2c1.8,0,3.2-1.5,3.2-3.2C41.3,19.5,39.9,18,38.1,18z M11.6,11.6c1.3-1.3,1.3-3.3,0-4.6
			c-1.3-1.3-3.3-1.3-4.6,0c-1.3,1.3-1.3,3.3,0,4.6C8.3,12.9,10.4,12.9,11.6,11.6z M30.9,30.9c-1.3,1.3-1.3,3.3,0,4.6
			c1.3,1.3,3.3,1.3,4.6,0c1.3-1.3,1.3-3.3,0-4.6S32.1,29.6,30.9,30.9z M7.1,30.9c-1.3,1.3-1.3,3.3,0,4.6c1.3,1.3,3.3,1.3,4.6,0
			c1.3-1.3,1.3-3.3,0-4.6C10.4,29.6,8.3,29.6,7.1,30.9z M35.4,11.6c1.3-1.3,1.3-3.3,0-4.6c-1.3-1.3-3.3-1.3-4.6,0
			c-1.3,1.3-1.3,3.3,0,4.6C32.1,12.9,34.2,12.9,35.4,11.6z M21.3,11.6c-5.3,0-9.6,4.3-9.6,9.6c0,5.3,4.3,9.6,9.6,9.6
			c5.3,0,9.6-4.3,9.6-9.6C30.9,15.9,26.6,11.6,21.3,11.6z M21.3,26.9c-3.1,0-5.6-2.5-5.6-5.6s2.5-5.6,5.6-5.6c3.1,0,5.6,2.5,5.6,5.6
			S24.4,26.9,21.3,26.9z M21.3,18.6c-1.5,0-2.6,1.2-2.6,2.6c0,1.5,1.2,2.6,2.6,2.6s2.6-1.2,2.6-2.6C23.9,19.8,22.7,18.6,21.3,18.6z"
			/>
	</g>
</g>
</svg>
