<?xml version="1.0" encoding="utf-8"?>
<!-- Generator: Adobe Illustrator 23.0.3, SVG Export Plug-In . SVG Version: 6.00 Build 0)  -->
<svg version="1.1" id="Layer_1" xmlns="http://www.w3.org/2000/svg" xmlns:xlink="http://www.w3.org/1999/xlink" x="0px" y="0px"
	 viewBox="0 0 42.5 42.5" style="enable-background:new 0 0 42.5 42.5;" xml:space="preserve">
<style type="text/css">
	.st0{fill:#f9f9f9;}
</style>
<g>
	<g>
		<path class="st0" d="M32.5,4v4.3c0,2-1.3,3.6-2.9,3.6h-1.7c-1.6,0-2.9-1.6-2.9-3.6V3.9h-7.5v4.4c0,2-1.3,3.6-2.9,3.6h-1.7
			c-1.6,0-2.9-1.6-2.9-3.6V4c-2.6,0.3-4.7,2.9-4.7,6v25.9c0,3.3,2.4,6,5.3,6H32c2.9,0,5.3-2.7,5.3-6V9.9C37.2,6.8,35.2,4.3,32.5,4z
			 M10.6,16.5h15.2v3.6H10.6V16.5z M10.6,23.6h19.7v3.6H10.6V23.6z M23.3,34.3H10.6v-3.6h12.7V34.3z M30.3,36.5
			c-1.3,0-2.3-1.2-2.3-2.7c0-1.5,1.1-2.7,2.3-2.7c1.3,0,2.3,1.2,2.3,2.7C32.6,35.3,31.6,36.5,30.3,36.5z M13.1,10.6h1.3
			c1.2,0,2.2-1.4,2.2-3.1V3.8c0-1.7-1-3.1-2.2-3.1h-1.3c-1.2,0-2.2,1.4-2.2,3.1v3.8C10.9,9.3,11.9,10.6,13.1,10.6z M28.1,10.6h1.3
			c1.2,0,2.2-1.4,2.2-3.1V3.8c0-1.7-1-3.1-2.2-3.1h-1.3c-1.2,0-2.2,1.4-2.2,3.1v3.8C25.9,9.3,26.9,10.6,28.1,10.6z"/>
	</g>
</g>
</svg>
