<?xml version="1.0" encoding="utf-8"?>
<!-- Generator: Adobe Illustrator 23.0.3, SVG Export Plug-In . SVG Version: 6.00 Build 0)  -->
<svg version="1.1" id="Layer_1" xmlns="http://www.w3.org/2000/svg" xmlns:xlink="http://www.w3.org/1999/xlink" x="0px" y="0px"
	 viewBox="0 0 42.5 42.5" style="enable-background:new 0 0 42.5 42.5;" xml:space="preserve">
<style type="text/css">
	.st0{fill:#f9f9f9;}
</style>
<g>
	<g>
		<path class="st0" d="M28.4,24.5c-0.1-0.6-0.7-1-1.3-0.9l-1.9,0.2c-0.4-0.8-0.9-1.4-1.5-2.1l0.8-1.7c0.3-0.6,0.1-1.2-0.4-1.5
			l-2.4-1.5c-0.5-0.3-1.2-0.2-1.6,0.3L19,18.8c-0.9-0.3-1.8-0.4-2.7-0.4l-0.6-1.7c-0.2-0.6-0.8-0.9-1.4-0.7l-2.8,0.7
			c-0.6,0.1-1,0.7-0.9,1.3l0.2,1.7c-0.8,0.4-1.6,1-2.2,1.6L7,20.6c-0.6-0.3-1.2-0.1-1.5,0.5l-1.5,2.4c-0.3,0.5-0.2,1.2,0.3,1.6
			l1.3,1c-0.3,0.9-0.4,1.7-0.5,2.6l-1.6,0.6c-0.6,0.2-0.9,0.8-0.8,1.4l0.6,2.7c0.1,0.6,0.7,1,1.3,0.9L6.2,34c0.4,0.8,1,1.6,1.6,2.3
			l-0.7,1.5c-0.3,0.6-0.1,1.2,0.4,1.5l2.4,1.5c0.5,0.3,1.2,0.2,1.6-0.3l1-1.3c0.9,0.3,1.9,0.4,2.9,0.4l0.6,1.5
			c0.2,0.6,0.8,0.9,1.4,0.7l2.8-0.7c0.6-0.1,1-0.7,0.9-1.3L21,38.2c0.8-0.4,1.5-1,2.2-1.6l1.6,0.7c0.6,0.3,1.2,0.1,1.5-0.5l1.5-2.4
			c0.3-0.5,0.2-1.2-0.3-1.6l-1.5-1.1c0.2-0.8,0.4-1.6,0.4-2.4l1.8-0.6c0.6-0.2,0.9-0.8,0.8-1.4L28.4,24.5z M19.7,31.4
			c-1.4,2.2-4.3,2.9-6.5,1.6c-2.2-1.3-2.9-4.2-1.5-6.4c1.4-2.2,4.3-2.9,6.5-1.6C20.5,26.3,21.1,29.2,19.7,31.4z M39.8,8.2l-0.4-1.8
			C39.3,6,39,5.7,38.5,5.8L37.3,6c-0.3-0.5-0.6-1-1-1.4l0.6-1.1c0.2-0.4,0.1-0.8-0.3-1l-1.6-1c-0.3-0.2-0.8-0.1-1.1,0.2l-0.8,1
			c-0.6-0.2-1.2-0.3-1.8-0.3l-0.4-1.1c-0.1-0.4-0.5-0.6-0.9-0.5L28,1.1c-0.4,0.1-0.7,0.5-0.6,0.9l0.1,1.2c-0.5,0.3-1.1,0.6-1.5,1.1
			l-1-0.5c-0.4-0.2-0.8,0-1,0.3l-1,1.6c-0.2,0.3-0.1,0.8,0.2,1l0.9,0.7c-0.2,0.6-0.3,1.2-0.3,1.8l-1.1,0.4c-0.4,0.1-0.6,0.5-0.5,0.9
			l0.4,1.8c0.1,0.4,0.5,0.7,0.9,0.6l1.1-0.1c0.3,0.6,0.7,1.1,1.1,1.5l-0.5,1c-0.2,0.4-0.1,0.8,0.3,1l1.6,1c0.3,0.2,0.8,0.1,1.1-0.2
			l0.7-0.9c0.6,0.2,1.3,0.3,1.9,0.3l0.4,1c0.1,0.4,0.5,0.6,0.9,0.5l1.9-0.4c0.4-0.1,0.7-0.5,0.6-0.9l-0.1-1.2c0.5-0.3,1-0.7,1.5-1.1
			l1.1,0.5c0.4,0.2,0.8,0,1-0.3l1-1.6c0.2-0.3,0.1-0.8-0.2-1l-1-0.8c0.2-0.5,0.2-1.1,0.3-1.6l1.2-0.4C39.7,9,39.9,8.6,39.8,8.2z
			 M33.6,11c-0.9,1.5-2.9,1.9-4.4,1c-1.5-0.9-1.9-2.8-1-4.3c0.9-1.5,2.9-1.9,4.4-1C34,7.6,34.5,9.5,33.6,11z"/>
	</g>
</g>
</svg>
