<svg id="_x31__x2C_5" enable-background="new 0 0 24 24" height="512" viewBox="0 0 24 24" width="512" xmlns="http://www.w3.org/2000/svg"><path fill="#3a3a3" d="m12 22c-5.514 0-10-4.486-10-10s4.486-10 10-10 10 4.486 10 10-4.486 10-10 10zm0-18.5c-4.687 0-8.5 3.813-8.5 8.5s3.813 8.5 8.5 8.5 8.5-3.813 8.5-8.5-3.813-8.5-8.5-8.5z"/><path fill="#3a3a3" d="m12 4.435c-.414 0-.75-.336-.75-.75v-2.935c0-.414.336-.75.75-.75s.75.336.75.75v2.935c0 .414-.336.75-.75.75z"/><path fill="#3a3a3" d="m12 24c-.414 0-.75-.336-.75-.75v-2.935c0-.414.336-.75.75-.75s.75.336.75.75v2.935c0 .414-.336.75-.75.75z"/><path fill="#3a3a3" d="m23.25 12.75h-2.935c-.414 0-.75-.336-.75-.75s.336-.75.75-.75h2.935c.414 0 .75.336.75.75s-.336.75-.75.75z"/><path fill="#3a3a3" d="m3.685 12.75h-2.935c-.414 0-.75-.336-.75-.75s.336-.75.75-.75h2.935c.414 0 .75.336.75.75s-.336.75-.75.75z"/></svg>